<svg width="120" height="40" viewBox="0 0 120 40" fill="none" xmlns="http://www.w3.org/2000/svg">
<path d="M20.8922 13.42C20.8944 13.3968 20.9 13.3667 20.9 13.3415C20.9 13.153 20.7606 13 20.5889 13C20.5158 13 20.4644 13.03 20.4445 13.0386C19.3883 13.4914 15.3 17.9567 15.3 21.878C15.3 24.7067 17.3894 27 19.9667 27C22.8006 27 24.6333 24.38 24.6333 21.878C24.6333 17.7166 20.1649 16.9483 20.8922 13.42Z" fill="#F46B4D"/>
<path d="M43.3281 15.0469V16.127H38.5293V25H37.2168V15.0469H43.3281ZM48.4961 20.3447H45.9736L45.96 19.2852H48.25C48.6283 19.2852 48.9587 19.2214 49.2412 19.0938C49.5238 18.9661 49.7425 18.7839 49.8975 18.5469C50.057 18.3053 50.1367 18.0182 50.1367 17.6855C50.1367 17.321 50.0661 17.0247 49.9248 16.7969C49.7881 16.5645 49.5762 16.3958 49.2891 16.291C49.0065 16.1816 48.6465 16.127 48.209 16.127H46.2676V25H44.9482V15.0469H48.209C48.7194 15.0469 49.1751 15.0993 49.5762 15.2041C49.9772 15.3044 50.3167 15.4639 50.5947 15.6826C50.8773 15.8968 51.0915 16.1702 51.2373 16.5029C51.3831 16.8356 51.4561 17.2344 51.4561 17.6992C51.4561 18.1094 51.3512 18.4808 51.1416 18.8135C50.932 19.1416 50.6403 19.4105 50.2666 19.6201C49.8975 19.8298 49.4645 19.9642 48.9678 20.0234L48.4961 20.3447ZM48.4346 25H45.4541L46.1992 23.9268H48.4346C48.8538 23.9268 49.2093 23.8538 49.501 23.708C49.7972 23.5622 50.0228 23.3571 50.1777 23.0928C50.3327 22.8239 50.4102 22.5072 50.4102 22.1426C50.4102 21.7734 50.3441 21.4544 50.2119 21.1855C50.0798 20.9167 49.8724 20.7093 49.5898 20.5635C49.3073 20.4176 48.9427 20.3447 48.4961 20.3447H46.6162L46.6299 19.2852H49.2002L49.4805 19.668C49.959 19.709 50.3646 19.8457 50.6973 20.0781C51.0299 20.306 51.2829 20.5977 51.4561 20.9531C51.6338 21.3086 51.7227 21.7005 51.7227 22.1289C51.7227 22.7487 51.5859 23.2728 51.3125 23.7012C51.0436 24.125 50.6631 24.4486 50.1709 24.6719C49.6787 24.8906 49.0999 25 48.4346 25ZM59.6797 21.835H60.9922C60.9238 22.4639 60.7438 23.0267 60.4521 23.5234C60.1605 24.0202 59.748 24.4144 59.2148 24.7061C58.6816 24.9932 58.0163 25.1367 57.2188 25.1367C56.6354 25.1367 56.1045 25.0273 55.626 24.8086C55.152 24.5898 54.7441 24.2799 54.4023 23.8789C54.0605 23.4733 53.7962 22.988 53.6094 22.4229C53.4271 21.8532 53.3359 21.2197 53.3359 20.5225V19.5312C53.3359 18.834 53.4271 18.2028 53.6094 17.6377C53.7962 17.068 54.0628 16.5804 54.4092 16.1748C54.7601 15.7692 55.1816 15.457 55.6738 15.2383C56.166 15.0195 56.7197 14.9102 57.335 14.9102C58.0869 14.9102 58.7227 15.0514 59.2422 15.334C59.7617 15.6165 60.165 16.0085 60.4521 16.5098C60.7438 17.0065 60.9238 17.583 60.9922 18.2393H59.6797C59.6159 17.7744 59.4974 17.3757 59.3242 17.043C59.151 16.7057 58.9049 16.446 58.5859 16.2637C58.2669 16.0814 57.8499 15.9902 57.335 15.9902C56.8929 15.9902 56.5033 16.0745 56.166 16.2432C55.8333 16.4118 55.5531 16.651 55.3252 16.9609C55.1019 17.2708 54.9333 17.6423 54.8193 18.0752C54.7054 18.5081 54.6484 18.9889 54.6484 19.5176V20.5225C54.6484 21.0101 54.6986 21.4681 54.7988 21.8965C54.9036 22.3249 55.0609 22.7008 55.2705 23.0244C55.4801 23.348 55.7467 23.6032 56.0703 23.79C56.3939 23.9723 56.7767 24.0635 57.2188 24.0635C57.7793 24.0635 58.2259 23.9746 58.5586 23.7969C58.8913 23.6191 59.1419 23.3639 59.3105 23.0312C59.4837 22.6986 59.6068 22.2998 59.6797 21.835Z" fill="#1D2432"/>
</svg>
