<svg width="120" height="40" viewBox="0 0 120 40" fill="none" xmlns="http://www.w3.org/2000/svg">
<path d="M20.8922 13.42C20.8944 13.3968 20.9 13.3667 20.9 13.3415C20.9 13.153 20.7606 13 20.5889 13C20.5158 13 20.4644 13.03 20.4445 13.0386C19.3883 13.4914 15.3 17.9567 15.3 21.878C15.3 24.7067 17.3894 27 19.9667 27C22.8006 27 24.6333 24.38 24.6333 21.878C24.6333 17.7166 20.1649 16.9483 20.8922 13.42Z" fill="#3698FA"/>
<path d="M38.0098 15.0469L40.4023 18.8613L42.7949 15.0469H44.333L41.1885 19.9756L44.4082 25H42.8564L40.4023 21.1104L37.9482 25H36.3965L39.6162 19.9756L36.4717 15.0469H38.0098ZM49.4805 20.3447H46.958L46.9443 19.2852H49.2344C49.6126 19.2852 49.943 19.2214 50.2256 19.0938C50.5081 18.9661 50.7269 18.7839 50.8818 18.5469C51.0413 18.3053 51.1211 18.0182 51.1211 17.6855C51.1211 17.321 51.0505 17.0247 50.9092 16.7969C50.7725 16.5645 50.5605 16.3958 50.2734 16.291C49.9909 16.1816 49.6309 16.127 49.1934 16.127H47.252V25H45.9326V15.0469H49.1934C49.7038 15.0469 50.1595 15.0993 50.5605 15.2041C50.9616 15.3044 51.3011 15.4639 51.5791 15.6826C51.8617 15.8968 52.0758 16.1702 52.2217 16.5029C52.3675 16.8356 52.4404 17.2344 52.4404 17.6992C52.4404 18.1094 52.3356 18.4808 52.126 18.8135C51.9163 19.1416 51.6247 19.4105 51.251 19.6201C50.8818 19.8298 50.4489 19.9642 49.9521 20.0234L49.4805 20.3447ZM49.4189 25H46.4385L47.1836 23.9268H49.4189C49.8382 23.9268 50.1937 23.8538 50.4854 23.708C50.7816 23.5622 51.0072 23.3571 51.1621 23.0928C51.3171 22.8239 51.3945 22.5072 51.3945 22.1426C51.3945 21.7734 51.3285 21.4544 51.1963 21.1855C51.0641 20.9167 50.8568 20.7093 50.5742 20.5635C50.2917 20.4176 49.9271 20.3447 49.4805 20.3447H47.6006L47.6143 19.2852H50.1846L50.4648 19.668C50.9434 19.709 51.349 19.8457 51.6816 20.0781C52.0143 20.306 52.2673 20.5977 52.4404 20.9531C52.6182 21.3086 52.707 21.7005 52.707 22.1289C52.707 22.7487 52.5703 23.2728 52.2969 23.7012C52.028 24.125 51.6475 24.4486 51.1553 24.6719C50.6631 24.8906 50.0843 25 49.4189 25ZM60.6641 21.835H61.9766C61.9082 22.4639 61.7282 23.0267 61.4365 23.5234C61.1449 24.0202 60.7324 24.4144 60.1992 24.7061C59.666 24.9932 59.0007 25.1367 58.2031 25.1367C57.6198 25.1367 57.0889 25.0273 56.6104 24.8086C56.1364 24.5898 55.7285 24.2799 55.3867 23.8789C55.0449 23.4733 54.7806 22.988 54.5938 22.4229C54.4115 21.8532 54.3203 21.2197 54.3203 20.5225V19.5312C54.3203 18.834 54.4115 18.2028 54.5938 17.6377C54.7806 17.068 55.0472 16.5804 55.3936 16.1748C55.7445 15.7692 56.166 15.457 56.6582 15.2383C57.1504 15.0195 57.7041 14.9102 58.3193 14.9102C59.0713 14.9102 59.707 15.0514 60.2266 15.334C60.7461 15.6165 61.1494 16.0085 61.4365 16.5098C61.7282 17.0065 61.9082 17.583 61.9766 18.2393H60.6641C60.6003 17.7744 60.4818 17.3757 60.3086 17.043C60.1354 16.7057 59.8893 16.446 59.5703 16.2637C59.2513 16.0814 58.8343 15.9902 58.3193 15.9902C57.8773 15.9902 57.4876 16.0745 57.1504 16.2432C56.8177 16.4118 56.5374 16.651 56.3096 16.9609C56.0863 17.2708 55.9176 17.6423 55.8037 18.0752C55.6898 18.5081 55.6328 18.9889 55.6328 19.5176V20.5225C55.6328 21.0101 55.6829 21.4681 55.7832 21.8965C55.888 22.3249 56.0452 22.7008 56.2549 23.0244C56.4645 23.348 56.7311 23.6032 57.0547 23.79C57.3783 23.9723 57.7611 24.0635 58.2031 24.0635C58.7637 24.0635 59.2103 23.9746 59.543 23.7969C59.8757 23.6191 60.1263 23.3639 60.2949 23.0312C60.4681 22.6986 60.5911 22.2998 60.6641 21.835Z" fill="#1D2432"/>
</svg>
